<?xml version="1.0" encoding="UTF-8" standalone="no"?>
<!-- Created with Inkscape (http://www.inkscape.org/) -->

<svg
   xmlns:dc="http://purl.org/dc/elements/1.1/"
   xmlns:cc="http://creativecommons.org/ns#"
   xmlns:rdf="http://www.w3.org/1999/02/22-rdf-syntax-ns#"
   xmlns:svg="http://www.w3.org/2000/svg"
   xmlns="http://www.w3.org/2000/svg"
   xmlns:sodipodi="http://sodipodi.sourceforge.net/DTD/sodipodi-0.dtd"
   xmlns:inkscape="http://www.inkscape.org/namespaces/inkscape"
   width="744.09448819"
   height="1052.3622047"
   id="svg2"
   version="1.1"
   inkscape:version="0.48.4 r9939"
   sodipodi:docname="interface.svg">
  <defs
     id="defs4" />
  <sodipodi:namedview
     id="base"
     pagecolor="#ffffff"
     bordercolor="#666666"
     borderopacity="1.0"
     inkscape:pageopacity="0.0"
     inkscape:pageshadow="2"
     inkscape:zoom="2.8284271"
     inkscape:cx="151.34796"
     inkscape:cy="998.16481"
     inkscape:document-units="px"
     inkscape:current-layer="g3024"
     showgrid="false"
     inkscape:window-width="1600"
     inkscape:window-height="845"
     inkscape:window-x="0"
     inkscape:window-y="0"
     inkscape:window-maximized="1" />
  <metadata
     id="metadata7">
    <rdf:RDF>
      <cc:Work
         rdf:about="">
        <dc:format>image/svg+xml</dc:format>
        <dc:type
           rdf:resource="http://purl.org/dc/dcmitype/StillImage" />
        <dc:title></dc:title>
      </cc:Work>
    </rdf:RDF>
  </metadata>
  <g
     inkscape:label="Layer 1"
     inkscape:groupmode="layer"
     id="layer1">
    <g
       id="g4030"
       transform="translate(-132.93607,-199.40411)"
       inkscape:export-filename="/home/demorose/Developpement/html/test-canvas/interface.png"
       inkscape:export-xdpi="90"
       inkscape:export-ydpi="90">
      <path
         sodipodi:type="arc"
         style="fill:#afe9af;fill-opacity:1;stroke:none"
         id="path3037"
         sodipodi:cx="143.94673"
         sodipodi:cy="198.2782"
         sodipodi:rx="82.327431"
         sodipodi:ry="82.327431"
         d="m 226.27416,198.2782 c 0,45.46818 -36.85924,82.32743 -82.32743,82.32743 -45.468183,0 -82.327429,-36.85925 -82.327429,-82.32743 0,-45.46819 36.859246,-82.32743 82.327429,-82.32743 45.46819,0 82.32743,36.85924 82.32743,82.32743 z"
         transform="matrix(0.45541252,0,0,0.45544765,113.42066,152.94091)" />
      <path
         inkscape:connector-curvature="0"
         style="fill:#2b0000;fill-opacity:1;stroke:none"
         d="m 178.98154,205.75 c -20.7068,0 -37.51279,16.77595 -37.51279,37.48432 0,20.70839 16.80599,37.51568 37.51279,37.51568 20.70677,0 37.48142,-16.80729 37.48142,-37.51568 0,-20.70837 -16.77465,-37.48432 -37.48142,-37.48432 z m 0,3.66694 c 18.68479,0 33.81477,15.13114 33.81477,33.81738 0,18.68625 -15.12998,33.84874 -33.81477,33.84874 -18.68481,0 -33.84613,-15.16249 -33.84613,-33.84874 0,-18.68624 15.16132,-33.81738 33.84613,-33.81738 z"
         id="path3039" />
      <path
         style="fill:#550000;fill-opacity:1;stroke:none"
         d="m 159.56678,220.60759 -3.22788,3.2281 19.40906,19.41055 -19.40906,19.41054 3.22788,3.22811 19.40904,-19.41054 19.36712,19.41054 3.26978,-3.22811 -19.40906,-19.41054 19.40906,-19.41055 -3.26978,-3.2281 -19.36712,19.41056 -19.40904,-19.41056 z"
         id="path3041"
         inkscape:connector-curvature="0" />
    </g>
    <g
       id="g4035"
       transform="translate(-132.93632,-199.40411)"
       inkscape:export-filename="/home/demorose/Developpement/html/test-canvas/interface.png"
       inkscape:export-xdpi="90"
       inkscape:export-ydpi="90">
      <path
         transform="matrix(0.45541252,0,0,0.45544765,188.42091,152.94091)"
         d="m 226.27416,198.2782 c 0,45.46818 -36.85924,82.32743 -82.32743,82.32743 -45.468183,0 -82.327429,-36.85925 -82.327429,-82.32743 0,-45.46819 36.859246,-82.32743 82.327429,-82.32743 45.46819,0 82.32743,36.85924 82.32743,82.32743 z"
         sodipodi:ry="82.327431"
         sodipodi:rx="82.327431"
         sodipodi:cy="198.2782"
         sodipodi:cx="143.94673"
         id="path3811"
         style="fill:#afe9af;fill-opacity:1;stroke:none"
         sodipodi:type="arc" />
      <g
         transform="matrix(0.74014519,0,0,0.74014519,65.971479,54.330045)"
         id="g3905">
        <path
           style="fill:#ffffff;fill-opacity:1;stroke:#000000;stroke-width:0.4577049;stroke-miterlimit:4;stroke-opacity:1;stroke-dasharray:none"
           d="m 225.40674,232.35543 0,45.77049 28.60655,14.30328 28.60656,-14.30328 0,-45.77049 -28.60656,14.30328 -28.60655,-14.30328 z"
           id="rect3827"
           inkscape:connector-curvature="0" />
        <path
           style="fill:#e6e6e6;fill-opacity:1;stroke:#000000;stroke-width:0.4577049;stroke-miterlimit:4;stroke-opacity:1;stroke-dasharray:none"
           d="m 282.61985,232.35543 -28.60656,14.30328 0,45.77049 28.60656,-14.30328 0,-45.77049 z"
           id="rect3825"
           inkscape:connector-curvature="0" />
        <rect
           style="fill:#ff0000;fill-opacity:1;stroke:#000000;stroke-width:0.5117296;stroke-miterlimit:4;stroke-opacity:1;stroke-dasharray:none"
           id="rect3817"
           width="31.983101"
           height="31.983101"
           x="-133.78146"
           y="385.78738"
           transform="matrix(0.89442719,-0.4472136,0.89442719,0.4472136,0,0)" />
        <path
           inkscape:connector-curvature="0"
           id="path3839"
           d="m 281.51959,235.81024 -3.52079,1.76039 0,5.63327 3.52079,-1.7604 0,-5.63326 z"
           style="fill:#cccccc;fill-opacity:1;stroke:#000000;stroke-width:0.0563326;stroke-miterlimit:4;stroke-opacity:1;stroke-dasharray:none" />
        <path
           style="fill:#cccccc;fill-opacity:1;stroke:#000000;stroke-width:0.0563326;stroke-miterlimit:4;stroke-opacity:1;stroke-dasharray:none"
           d="m 275.46164,238.77182 -3.52079,1.76039 0,5.63326 3.52079,-1.76039 0,-5.63326 z"
           id="path3841"
           inkscape:connector-curvature="0" />
        <path
           inkscape:connector-curvature="0"
           id="path3843"
           d="m 268.66833,242.07998 -3.52079,1.76039 0,5.63326 3.52079,-1.76039 0,-5.63326 z"
           style="fill:#cccccc;fill-opacity:1;stroke:#000000;stroke-width:0.0563326;stroke-miterlimit:4;stroke-opacity:1;stroke-dasharray:none" />
        <path
           style="fill:#cccccc;fill-opacity:1;stroke:#000000;stroke-width:0.0563326;stroke-miterlimit:4;stroke-opacity:1;stroke-dasharray:none"
           d="m 261.23063,245.72732 -3.5208,1.76039 0,5.63326 3.5208,-1.76039 0,-5.63326 z"
           id="path3845"
           inkscape:connector-curvature="0" />
        <path
           style="fill:#cccccc;fill-opacity:1;stroke:#000000;stroke-width:0.0563326;stroke-miterlimit:4;stroke-opacity:1;stroke-dasharray:none"
           d="m 281.51959,247.25287 -3.52079,1.76039 0,5.63326 3.52079,-1.76039 0,-5.63326 z"
           id="path3849"
           inkscape:connector-curvature="0" />
        <path
           inkscape:connector-curvature="0"
           id="path3851"
           d="m 275.46164,250.21445 -3.52079,1.76039 0,5.63326 3.52079,-1.76039 0,-5.63326 z"
           style="fill:#cccccc;fill-opacity:1;stroke:#000000;stroke-width:0.0563326;stroke-miterlimit:4;stroke-opacity:1;stroke-dasharray:none" />
        <path
           style="fill:#cccccc;fill-opacity:1;stroke:#000000;stroke-width:0.0563326;stroke-miterlimit:4;stroke-opacity:1;stroke-dasharray:none"
           d="m 268.66833,253.52261 -3.52079,1.76039 0,5.63326 3.52079,-1.76039 0,-5.63326 z"
           id="path3853"
           inkscape:connector-curvature="0" />
        <path
           inkscape:connector-curvature="0"
           id="path3855"
           d="m 261.23063,257.16994 -3.5208,1.76039 0,5.63326 3.5208,-1.76039 0,-5.63326 z"
           style="fill:#cccccc;fill-opacity:1;stroke:#000000;stroke-width:0.0563326;stroke-miterlimit:4;stroke-opacity:1;stroke-dasharray:none" />
        <path
           inkscape:connector-curvature="0"
           id="path3857"
           d="m 281.51959,258.69549 -3.52079,1.76039 0,5.63326 3.52079,-1.76039 0,-5.63326 z"
           style="fill:#cccccc;fill-opacity:1;stroke:#000000;stroke-width:0.0563326;stroke-miterlimit:4;stroke-opacity:1;stroke-dasharray:none" />
        <path
           style="fill:#cccccc;fill-opacity:1;stroke:#000000;stroke-width:0.0563326;stroke-miterlimit:4;stroke-opacity:1;stroke-dasharray:none"
           d="m 275.46164,261.65707 -3.52079,1.76039 0,5.63326 3.52079,-1.76039 0,-5.63326 z"
           id="path3859"
           inkscape:connector-curvature="0" />
        <path
           inkscape:connector-curvature="0"
           id="path3861"
           d="m 268.66833,264.96523 -3.52079,1.76039 0,5.63326 3.52079,-1.76039 0,-5.63326 z"
           style="fill:#cccccc;fill-opacity:1;stroke:#000000;stroke-width:0.0563326;stroke-miterlimit:4;stroke-opacity:1;stroke-dasharray:none" />
        <path
           style="fill:#cccccc;fill-opacity:1;stroke:#000000;stroke-width:0.0563326;stroke-miterlimit:4;stroke-opacity:1;stroke-dasharray:none"
           d="m 261.23063,268.61256 -3.5208,1.76039 0,5.63326 3.5208,-1.76039 0,-5.63326 z"
           id="path3863"
           inkscape:connector-curvature="0" />
        <path
           style="fill:#e6e6e6;fill-opacity:1;stroke:#000000;stroke-width:0.0563326;stroke-miterlimit:4;stroke-opacity:1;stroke-dasharray:none"
           d="m 227.62982,258.69549 3.5208,1.76039 0,5.63326 -3.5208,-1.76039 0,-5.63326 z"
           id="path3881"
           inkscape:connector-curvature="0" />
        <path
           inkscape:connector-curvature="0"
           id="path3883"
           d="m 233.68777,261.65707 3.52079,1.76039 0,5.63326 -3.52079,-1.76039 0,-5.63326 z"
           style="fill:#e6e6e6;fill-opacity:1;stroke:#000000;stroke-width:0.0563326;stroke-miterlimit:4;stroke-opacity:1;stroke-dasharray:none" />
        <path
           style="fill:#e6e6e6;fill-opacity:1;stroke:#000000;stroke-width:0.0563326;stroke-miterlimit:4;stroke-opacity:1;stroke-dasharray:none"
           d="m 240.48108,264.96523 3.5208,1.76039 0,5.63326 -3.5208,-1.76039 0,-5.63326 z"
           id="path3885"
           inkscape:connector-curvature="0" />
        <path
           inkscape:connector-curvature="0"
           id="path3887"
           d="m 247.91879,268.61256 3.52079,1.76039 0,5.63326 -3.52079,-1.76039 0,-5.63326 z"
           style="fill:#e6e6e6;fill-opacity:1;stroke:#000000;stroke-width:0.0563326;stroke-miterlimit:4;stroke-opacity:1;stroke-dasharray:none" />
        <path
           inkscape:connector-curvature="0"
           id="path3889"
           d="m 227.62982,247.25287 3.5208,1.76039 0,5.63326 -3.5208,-1.76039 0,-5.63326 z"
           style="fill:#e6e6e6;fill-opacity:1;stroke:#000000;stroke-width:0.0563326;stroke-miterlimit:4;stroke-opacity:1;stroke-dasharray:none" />
        <path
           style="fill:#e6e6e6;fill-opacity:1;stroke:#000000;stroke-width:0.0563326;stroke-miterlimit:4;stroke-opacity:1;stroke-dasharray:none"
           d="m 233.68777,250.21445 3.52079,1.76039 0,5.63326 -3.52079,-1.76039 0,-5.63326 z"
           id="path3891"
           inkscape:connector-curvature="0" />
        <path
           inkscape:connector-curvature="0"
           id="path3893"
           d="m 240.48108,253.52261 3.5208,1.76039 0,5.63326 -3.5208,-1.76039 0,-5.63326 z"
           style="fill:#e6e6e6;fill-opacity:1;stroke:#000000;stroke-width:0.0563326;stroke-miterlimit:4;stroke-opacity:1;stroke-dasharray:none" />
        <path
           style="fill:#e6e6e6;fill-opacity:1;stroke:#000000;stroke-width:0.0563326;stroke-miterlimit:4;stroke-opacity:1;stroke-dasharray:none"
           d="m 247.91879,257.16994 3.52079,1.76039 0,5.63326 -3.52079,-1.76039 0,-5.63326 z"
           id="path3895"
           inkscape:connector-curvature="0" />
        <path
           style="fill:#e6e6e6;fill-opacity:1;stroke:#000000;stroke-width:0.0563326;stroke-miterlimit:4;stroke-opacity:1;stroke-dasharray:none"
           d="m 227.62982,235.81024 3.5208,1.76039 0,5.63327 -3.5208,-1.7604 0,-5.63326 z"
           id="path3897"
           inkscape:connector-curvature="0" />
        <path
           inkscape:connector-curvature="0"
           id="path3899"
           d="m 233.68777,238.77182 3.52079,1.76039 0,5.63326 -3.52079,-1.76039 0,-5.63326 z"
           style="fill:#e6e6e6;fill-opacity:1;stroke:#000000;stroke-width:0.0563326;stroke-miterlimit:4;stroke-opacity:1;stroke-dasharray:none" />
        <path
           style="fill:#e6e6e6;fill-opacity:1;stroke:#000000;stroke-width:0.0563326;stroke-miterlimit:4;stroke-opacity:1;stroke-dasharray:none"
           d="m 240.48108,242.07998 3.5208,1.76039 0,5.63326 -3.5208,-1.76039 0,-5.63326 z"
           id="path3901"
           inkscape:connector-curvature="0" />
        <path
           inkscape:connector-curvature="0"
           id="path3903"
           d="m 247.91879,245.72732 3.52079,1.76039 0,5.63326 -3.52079,-1.76039 0,-5.63326 z"
           style="fill:#e6e6e6;fill-opacity:1;stroke:#000000;stroke-width:0.0563326;stroke-miterlimit:4;stroke-opacity:1;stroke-dasharray:none" />
      </g>
      <path
         id="path3813"
         d="m 253.98179,205.75 c -20.7068,0 -37.51279,16.77595 -37.51279,37.48432 0,20.70839 16.80599,37.51568 37.51279,37.51568 20.70677,0 37.48142,-16.80729 37.48142,-37.51568 0,-20.70837 -16.77465,-37.48432 -37.48142,-37.48432 z m 0,3.66694 c 18.68479,0 33.81477,15.13114 33.81477,33.81738 0,18.68625 -15.12998,33.84874 -33.81477,33.84874 -18.68481,0 -33.84613,-15.16249 -33.84613,-33.84874 0,-18.68624 15.16132,-33.81738 33.84613,-33.81738 z"
         style="fill:#2b0000;fill-opacity:1;stroke:none"
         inkscape:connector-curvature="0" />
    </g>
    <g
       id="g4067"
       transform="translate(-132.93607,-199.40411)"
       inkscape:export-filename="/home/demorose/Developpement/html/test-canvas/interface.png"
       inkscape:export-xdpi="90"
       inkscape:export-ydpi="90">
      <path
         transform="matrix(0.45541252,0,0,0.45544765,263.42066,152.94091)"
         d="m 226.27416,198.2782 c 0,45.46818 -36.85924,82.32743 -82.32743,82.32743 -45.468183,0 -82.327429,-36.85925 -82.327429,-82.32743 0,-45.46819 36.859246,-82.32743 82.327429,-82.32743 45.46819,0 82.32743,36.85924 82.32743,82.32743 z"
         sodipodi:ry="82.327431"
         sodipodi:rx="82.327431"
         sodipodi:cy="198.2782"
         sodipodi:cx="143.94673"
         id="path3934"
         style="fill:#afe9af;fill-opacity:1;stroke:none"
         sodipodi:type="arc" />
      <path
         id="path3936"
         d="m 328.98154,205.75 c -20.7068,0 -37.51279,16.77595 -37.51279,37.48432 0,20.70839 16.80599,37.51568 37.51279,37.51568 20.70677,0 37.48142,-16.80729 37.48142,-37.51568 0,-20.70837 -16.77465,-37.48432 -37.48142,-37.48432 z m 0,3.66694 c 18.68479,0 33.81477,15.13114 33.81477,33.81738 0,18.68625 -15.12998,33.84874 -33.81477,33.84874 -18.68481,0 -33.84613,-15.16249 -33.84613,-33.84874 0,-18.68624 15.16132,-33.81738 33.84613,-33.81738 z"
         style="fill:#2b0000;fill-opacity:1;stroke:none"
         inkscape:connector-curvature="0" />
      <g
         id="g4025">
        <path
           style="fill:#552200;fill-opacity:1;stroke:#000000;stroke-width:0.1;stroke-miterlimit:4;stroke-opacity:1;stroke-dasharray:none"
           d="m 309.53125,218.03125 -6.125,6.125 1.6875,1.6875 2.53125,-2.53125 30.40625,30.375 1.03125,-1.03125 -30.375,-30.40625 2.53125,-2.53125 -1.6875,-1.6875 z"
           id="rect4004"
           inkscape:connector-curvature="0" />
        <path
           style="fill:#cccccc;fill-opacity:1;stroke:#000000;stroke-width:0.1;stroke-miterlimit:4;stroke-opacity:1;stroke-dasharray:none"
           d="m 331.69623,256.51535 10.19766,-10.19766 13.66386,13.66386 c -1.35052,6.13082 -5.03371,9.15141 -10.19766,10.19766 z"
           id="rect3996"
           inkscape:connector-curvature="0"
           sodipodi:nodetypes="ccccc" />
        <path
           inkscape:connector-curvature="0"
           style="fill:#999999;stroke:#000000;stroke-width:0;stroke-miterlimit:4;stroke-opacity:1;stroke-dasharray:none"
           d="m 336.28531,251.93658 5.67653,5.67653 0.55258,0 -5.95282,-5.95282 -0.27629,0.27629 z"
           id="path3999" />
      </g>
    </g>
    <g
       inkscape:export-ydpi="90"
       inkscape:export-xdpi="90"
       inkscape:export-filename="/home/demorose/Developpement/html/test-canvas/interface.png"
       transform="translate(92.06425,-199.40411)"
       id="g3024">
      <g
         id="g3066"
         inkscape:export-filename="/home/demorose/Developpement/html/test-canvas/interface.png"
         inkscape:export-xdpi="90"
         inkscape:export-ydpi="90">
        <path
           sodipodi:type="arc"
           style="fill:#afe9af;fill-opacity:1;stroke:none"
           id="path3026"
           sodipodi:cx="143.94673"
           sodipodi:cy="198.2782"
           sodipodi:rx="82.327431"
           sodipodi:ry="82.327431"
           d="m 226.27416,198.2782 c 0,45.46818 -36.85924,82.32743 -82.32743,82.32743 -45.468183,0 -82.327429,-36.85925 -82.327429,-82.32743 0,-45.46819 36.859246,-82.32743 82.327429,-82.32743 45.46819,0 82.32743,36.85924 82.32743,82.32743 z"
           transform="matrix(0.45541252,0,0,0.45544765,113.42066,152.94091)" />
        <path
           inkscape:connector-curvature="0"
           style="fill:#2b0000;fill-opacity:1;stroke:none"
           d="m 178.98154,205.75 c -20.7068,0 -37.51279,16.77595 -37.51279,37.48432 0,20.70839 16.80599,37.51568 37.51279,37.51568 20.70677,0 37.48142,-16.80729 37.48142,-37.51568 0,-20.70837 -16.77465,-37.48432 -37.48142,-37.48432 z m 0,3.66694 c 18.68479,0 33.81477,15.13114 33.81477,33.81738 0,18.68625 -15.12998,33.84874 -33.81477,33.84874 -18.68481,0 -33.84613,-15.16249 -33.84613,-33.84874 0,-18.68624 15.16132,-33.81738 33.84613,-33.81738 z"
           id="path3028" />
        <path
           id="path3030"
           transform="translate(-92.06425,199.40411)"
           d="M 271.03125 11.875 L 263.4375 23.53125 L 268.71875 23.53125 L 268.75 41.5625 L 252.84375 41.5625 L 252.84375 36.09375 L 241.21875 43.6875 L 241.375 43.8125 L 241.3125 43.84375 L 242.40625 44.46875 L 252.84375 51.3125 L 252.84375 46.125 L 268.75 46.125 L 268.75 63.875 L 263.4375 63.875 L 271.03125 75.53125 L 278.625 63.875 L 273.3125 63.875 L 273.3125 46.125 L 289.21875 46.15625 L 289.21875 51.3125 L 299.53125 44.5625 L 300.75 43.84375 L 300.6875 43.8125 L 300.84375 43.6875 L 289.21875 36.09375 L 289.21875 41.5625 L 273.3125 41.5625 L 273.3125 23.53125 L 278.625 23.53125 L 271.03125 11.875 z "
           style="fill:#550000;fill-opacity:1;stroke:none" />
      </g>
    </g>
  </g>
</svg>
