<?xml version="1.0" encoding="UTF-8" standalone="no"?>
<!-- Created with Inkscape (http://www.inkscape.org/) -->

<svg
   xmlns:dc="http://purl.org/dc/elements/1.1/"
   xmlns:cc="http://creativecommons.org/ns#"
   xmlns:rdf="http://www.w3.org/1999/02/22-rdf-syntax-ns#"
   xmlns:svg="http://www.w3.org/2000/svg"
   xmlns="http://www.w3.org/2000/svg"
   xmlns:sodipodi="http://sodipodi.sourceforge.net/DTD/sodipodi-0.dtd"
   xmlns:inkscape="http://www.inkscape.org/namespaces/inkscape"
   width="744.09448819"
   height="1052.3622047"
   id="svg2"
   version="1.1"
   inkscape:version="0.48.4 r9939"
   sodipodi:docname="building.svg">
  <defs
     id="defs4" />
  <sodipodi:namedview
     id="base"
     pagecolor="#ffffff"
     bordercolor="#666666"
     borderopacity="1.0"
     inkscape:pageopacity="0.0"
     inkscape:pageshadow="2"
     inkscape:zoom="1.4"
     inkscape:cx="321.28935"
     inkscape:cy="869.02674"
     inkscape:document-units="px"
     inkscape:current-layer="layer1"
     showgrid="false"
     inkscape:window-width="1535"
     inkscape:window-height="876"
     inkscape:window-x="65"
     inkscape:window-y="24"
     inkscape:window-maximized="1" />
  <metadata
     id="metadata7">
    <rdf:RDF>
      <cc:Work
         rdf:about="">
        <dc:format>image/svg+xml</dc:format>
        <dc:type
           rdf:resource="http://purl.org/dc/dcmitype/StillImage" />
        <dc:title></dc:title>
      </cc:Work>
    </rdf:RDF>
  </metadata>
  <g
     inkscape:label="Layer 1"
     inkscape:groupmode="layer"
     id="layer1">
    <g
       id="g3815"
       transform="matrix(0.99030887,0,0,0.99410669,2.038343,0.71161852)"
       inkscape:export-filename="/home/demorose/developpement/javascript/test-canvas/building.png"
       inkscape:export-xdpi="90"
       inkscape:export-ydpi="90">
      <rect
         style="fill:#ff0000;fill-opacity:1;stroke:#000000;stroke-linejoin:round;stroke-opacity:1"
         id="rect3002"
         width="55.901699"
         height="55.901699"
         x="170.59129"
         y="-69.277512"
         transform="matrix(0.89442718,0.44721361,-0.89442718,0.44721361,0,0)" />
      <rect
         transform="matrix(0.89441806,0.44723185,0,1,0,0)"
         y="-12.030605"
         x="184.0374"
         height="100"
         width="55.902271"
         id="rect3004"
         style="fill:#ff8d1c;fill-opacity:1;stroke:#000000;stroke-linejoin:round;stroke-opacity:1" />
      <rect
         style="fill:#ff8d1c;fill-opacity:1;stroke:#000000;stroke-linejoin:round;stroke-opacity:1"
         id="rect3006"
         width="55.902271"
         height="100"
         x="-295.84198"
         y="202.58662"
         transform="matrix(-0.89441806,0.44723185,0,1,0,0)" />
      <rect
         style="fill:#999999;fill-opacity:1;stroke:none"
         id="rect3778"
         width="4.9912744"
         height="8.9285717"
         x="190.02693"
         y="-1.5390888"
         transform="matrix(0.89441806,0.44723185,0,1,0,0)" />
      <rect
         transform="matrix(0.89441806,0.44723185,0,1,0,0)"
         y="-1.1606404"
         x="203.44344"
         height="8.9285717"
         width="4.9912744"
         id="rect3780"
         style="fill:#999999;fill-opacity:1;stroke:none" />
      <rect
         style="fill:#999999;fill-opacity:1;stroke:none"
         id="rect3782"
         width="4.9912744"
         height="8.9285717"
         x="219.09602"
         y="-1.8025776"
         transform="matrix(0.89441806,0.44723185,0,1,0,0)" />
      <rect
         transform="matrix(0.89441806,0.44723185,0,1,0,0)"
         y="18.460911"
         x="190.02693"
         height="8.9285717"
         width="4.9912744"
         id="rect3784"
         style="fill:#999999;fill-opacity:1;stroke:none" />
      <rect
         style="fill:#999999;fill-opacity:1;stroke:none"
         id="rect3786"
         width="4.9912744"
         height="8.9285717"
         x="203.44344"
         y="18.839359"
         transform="matrix(0.89441806,0.44723185,0,1,0,0)" />
      <rect
         transform="matrix(0.89441806,0.44723185,0,1,0,0)"
         y="18.197414"
         x="219.09602"
         height="8.9285717"
         width="4.9912744"
         id="rect3788"
         style="fill:#999999;fill-opacity:1;stroke:none" />
      <rect
         style="fill:#999999;fill-opacity:1;stroke:none"
         id="rect3790"
         width="4.9912744"
         height="8.9285717"
         x="190.02693"
         y="38.460911"
         transform="matrix(0.89441806,0.44723185,0,1,0,0)" />
      <rect
         transform="matrix(0.89441806,0.44723185,0,1,0,0)"
         y="38.839359"
         x="203.44344"
         height="8.9285717"
         width="4.9912744"
         id="rect3792"
         style="fill:#999999;fill-opacity:1;stroke:none" />
      <rect
         style="fill:#999999;fill-opacity:1;stroke:none"
         id="rect3794"
         width="4.9912744"
         height="8.9285717"
         x="219.09602"
         y="38.197414"
         transform="matrix(0.89441806,0.44723185,0,1,0,0)" />
      <rect
         transform="matrix(0.89441806,0.44723185,0,1,0,0)"
         y="58.460903"
         x="190.02693"
         height="8.9285717"
         width="4.9912744"
         id="rect3796"
         style="fill:#999999;fill-opacity:1;stroke:none" />
      <rect
         style="fill:#999999;fill-opacity:1;stroke:none"
         id="rect3798"
         width="4.9912744"
         height="8.9285717"
         x="203.44344"
         y="58.839352"
         transform="matrix(0.89441806,0.44723185,0,1,0,0)" />
      <rect
         transform="matrix(0.89441806,0.44723185,0,1,0,0)"
         y="58.197414"
         x="219.09602"
         height="8.9285717"
         width="4.9912744"
         id="rect3800"
         style="fill:#999999;fill-opacity:1;stroke:none" />
      <rect
         style="fill:#999999;fill-opacity:1;stroke:none"
         id="rect3802"
         width="4.9912744"
         height="8.9285717"
         x="-284.46176"
         y="270.66727"
         transform="matrix(-0.89441806,0.44723185,0,1,0,0)" />
      <rect
         transform="matrix(-0.89441806,0.44723185,0,1,0,0)"
         y="271.04575"
         x="-271.04526"
         height="8.9285717"
         width="4.9912744"
         id="rect3804"
         style="fill:#999999;fill-opacity:1;stroke:none" />
      <rect
         style="fill:#999999;fill-opacity:1;stroke:none"
         id="rect3806"
         width="4.9912744"
         height="8.9285717"
         x="-255.39267"
         y="270.40378"
         transform="matrix(-0.89441806,0.44723185,0,1,0,0)" />
      <rect
         transform="matrix(-0.89441806,0.44723185,0,1,0,0)"
         y="250.66725"
         x="-284.46176"
         height="8.9285717"
         width="4.9912744"
         id="rect3808"
         style="fill:#999999;fill-opacity:1;stroke:none" />
      <rect
         style="fill:#999999;fill-opacity:1;stroke:none"
         id="rect3810"
         width="4.9912744"
         height="8.9285717"
         x="-271.04526"
         y="251.04573"
         transform="matrix(-0.89441806,0.44723185,0,1,0,0)" />
      <rect
         transform="matrix(-0.89441806,0.44723185,0,1,0,0)"
         y="250.40376"
         x="-255.39267"
         height="8.9285717"
         width="4.9912744"
         id="rect3812"
         style="fill:#999999;fill-opacity:1;stroke:none" />
      <rect
         style="fill:#999999;fill-opacity:1;stroke:none"
         id="rect3814"
         width="4.9912744"
         height="8.9285717"
         x="-284.46176"
         y="230.66725"
         transform="matrix(-0.89441806,0.44723185,0,1,0,0)" />
      <rect
         transform="matrix(-0.89441806,0.44723185,0,1,0,0)"
         y="231.04573"
         x="-271.04526"
         height="8.9285717"
         width="4.9912744"
         id="rect3816"
         style="fill:#999999;fill-opacity:1;stroke:none" />
      <rect
         style="fill:#999999;fill-opacity:1;stroke:none"
         id="rect3818"
         width="4.9912744"
         height="8.9285717"
         x="-255.39267"
         y="230.40376"
         transform="matrix(-0.89441806,0.44723185,0,1,0,0)" />
      <rect
         transform="matrix(-0.89441806,0.44723185,0,1,0,0)"
         y="210.66725"
         x="-284.46176"
         height="8.9285717"
         width="4.9912744"
         id="rect3820"
         style="fill:#999999;fill-opacity:1;stroke:none" />
      <rect
         style="fill:#999999;fill-opacity:1;stroke:none"
         id="rect3822"
         width="4.9912744"
         height="8.9285717"
         x="-271.04526"
         y="211.04573"
         transform="matrix(-0.89441806,0.44723185,0,1,0,0)" />
      <rect
         transform="matrix(-0.89441806,0.44723185,0,1,0,0)"
         y="210.40376"
         x="-255.39267"
         height="8.9285717"
         width="4.9912744"
         id="rect3824"
         style="fill:#999999;fill-opacity:1;stroke:none" />
      <path
         sodipodi:nodetypes="ccccc"
         inkscape:connector-curvature="0"
         id="rect3826"
         d="m 248.44396,164.83463 -10.85659,5.42857 0,13.71318 10.85659,-5.42857 z"
         style="fill:#aa0000;fill-opacity:1;stroke:none" />
      <path
         style="fill:#800000;fill-opacity:1;stroke:none"
         d="m 248.44396,164.83463 -5.64578,2.82903 0,13.71318 5.64578,-2.82903 z"
         id="path3831"
         inkscape:connector-curvature="0"
         sodipodi:nodetypes="ccccc" />
      <path
         sodipodi:nodetypes="ccccc"
         inkscape:connector-curvature="0"
         id="path3833"
         d="m 237.58284,183.99241 10.86111,-5.44459 -5.62571,-2.56097 -5.2354,2.29238 z"
         style="fill:#2b0000;fill-opacity:1;stroke:none" />
    </g>
    <rect
       style="fill:none;fill-opacity:1;stroke:none"
       id="rect3013"
       width="100"
       height="150"
       x="64.545166"
       y="45.308899"
       inkscape:export-filename="/home/demorose/developpement/javascript/test-canvas/building.png"
       inkscape:export-xdpi="90"
       inkscape:export-ydpi="90" />
    <g
       id="g3886"
       inkscape:export-filename="/home/demorose/developpement/javascript/test-canvas/building.png"
       inkscape:export-xdpi="90"
       inkscape:export-ydpi="90">
      <rect
         style="fill:#d35f5f;stroke:#000000;stroke-width:1.11692977;stroke-linecap:butt;stroke-linejoin:round;stroke-miterlimit:4;stroke-opacity:1;stroke-dasharray:none"
         id="rect3862"
         width="55.314053"
         height="55.314053"
         x="338.7146"
         y="-12.769137"
         transform="matrix(0.89492207,0.44622246,-0.89492207,0.44622246,0,0)" />
      <rect
         transform="matrix(0.89492207,0.44622246,-0.89492207,0.44622246,0,0)"
         y="-46.384602"
         x="305.09903"
         height="55.314053"
         width="55.314053"
         id="rect3847"
         style="fill:#d35f5f;stroke:#000000;stroke-width:1.11692977;stroke-linecap:butt;stroke-linejoin:round;stroke-miterlimit:4;stroke-opacity:1;stroke-dasharray:none" />
      <rect
         style="fill:#e6e6e6;stroke:#000000;stroke-width:1.07216167;stroke-linecap:butt;stroke-linejoin:round;stroke-miterlimit:4;stroke-opacity:1;stroke-dasharray:none"
         id="rect3864"
         width="54.594322"
         height="29.456387"
         x="352.55002"
         y="323.12515"
         transform="matrix(0.89398222,-0.44810243,0,1,0,0)" />
      <rect
         transform="matrix(0.89398222,0.44810243,0,-1,0,0)"
         y="-37.163799"
         x="296.47031"
         height="29.520306"
         width="55.300549"
         id="rect3866"
         style="fill:#e6e6e6;stroke:#000000;stroke-width:1.07216167;stroke-linecap:butt;stroke-linejoin:round;stroke-miterlimit:4;stroke-opacity:1;stroke-dasharray:none" />
      <rect
         transform="matrix(0.89398222,-0.44810243,0,1,0,0)"
         y="328.91858"
         x="356.95825"
         height="17.182268"
         width="31.84553"
         id="rect3868"
         style="fill:#d5fff6;stroke:#000000;stroke-width:0.62540489;stroke-linecap:butt;stroke-linejoin:round;stroke-miterlimit:4;stroke-opacity:1;stroke-dasharray:none" />
      <rect
         style="fill:#552200;stroke:#000000;stroke-width:0.45692235;stroke-linecap:butt;stroke-linejoin:round;stroke-miterlimit:4;stroke-opacity:1;stroke-dasharray:none"
         id="rect3870"
         width="10.827522"
         height="18.318756"
         x="393.98697"
         y="334.20709"
         transform="matrix(0.89398222,-0.44810243,0,1,0,0)" />
    </g>
    <g
       inkscape:export-ydpi="90"
       inkscape:export-xdpi="90"
       inkscape:export-filename="/home/demorose/developpement/javascript/test-canvas/building.png"
       transform="matrix(0.99030887,0,0,0.99410669,2.038343,150.71162)"
       id="g3021"
       style="opacity:0.62">
      <rect
         transform="matrix(0.89442718,0.44721361,-0.89442718,0.44721361,0,0)"
         y="-69.277512"
         x="170.59129"
         height="55.901699"
         width="55.901699"
         id="rect3023"
         style="fill:#ff0000;fill-opacity:1;stroke:#000000;stroke-linejoin:round;stroke-opacity:1" />
      <rect
         style="fill:#ff8d1c;fill-opacity:1;stroke:#000000;stroke-linejoin:round;stroke-opacity:1"
         id="rect3025"
         width="55.902271"
         height="100"
         x="184.0374"
         y="-12.030605"
         transform="matrix(0.89441806,0.44723185,0,1,0,0)" />
      <rect
         transform="matrix(-0.89441806,0.44723185,0,1,0,0)"
         y="202.58662"
         x="-295.84198"
         height="100"
         width="55.902271"
         id="rect3027"
         style="fill:#ff8d1c;fill-opacity:1;stroke:#000000;stroke-linejoin:round;stroke-opacity:1" />
      <rect
         transform="matrix(0.89441806,0.44723185,0,1,0,0)"
         y="-1.5390888"
         x="190.02693"
         height="8.9285717"
         width="4.9912744"
         id="rect3029"
         style="fill:#999999;fill-opacity:1;stroke:none" />
      <rect
         style="fill:#999999;fill-opacity:1;stroke:none"
         id="rect3031"
         width="4.9912744"
         height="8.9285717"
         x="203.44344"
         y="-1.1606404"
         transform="matrix(0.89441806,0.44723185,0,1,0,0)" />
      <rect
         transform="matrix(0.89441806,0.44723185,0,1,0,0)"
         y="-1.8025776"
         x="219.09602"
         height="8.9285717"
         width="4.9912744"
         id="rect3033"
         style="fill:#999999;fill-opacity:1;stroke:none" />
      <rect
         style="fill:#999999;fill-opacity:1;stroke:none"
         id="rect3035"
         width="4.9912744"
         height="8.9285717"
         x="190.02693"
         y="18.460911"
         transform="matrix(0.89441806,0.44723185,0,1,0,0)" />
      <rect
         transform="matrix(0.89441806,0.44723185,0,1,0,0)"
         y="18.839359"
         x="203.44344"
         height="8.9285717"
         width="4.9912744"
         id="rect3037"
         style="fill:#999999;fill-opacity:1;stroke:none" />
      <rect
         style="fill:#999999;fill-opacity:1;stroke:none"
         id="rect3039"
         width="4.9912744"
         height="8.9285717"
         x="219.09602"
         y="18.197414"
         transform="matrix(0.89441806,0.44723185,0,1,0,0)" />
      <rect
         transform="matrix(0.89441806,0.44723185,0,1,0,0)"
         y="38.460911"
         x="190.02693"
         height="8.9285717"
         width="4.9912744"
         id="rect3041"
         style="fill:#999999;fill-opacity:1;stroke:none" />
      <rect
         style="fill:#999999;fill-opacity:1;stroke:none"
         id="rect3043"
         width="4.9912744"
         height="8.9285717"
         x="203.44344"
         y="38.839359"
         transform="matrix(0.89441806,0.44723185,0,1,0,0)" />
      <rect
         transform="matrix(0.89441806,0.44723185,0,1,0,0)"
         y="38.197414"
         x="219.09602"
         height="8.9285717"
         width="4.9912744"
         id="rect3045"
         style="fill:#999999;fill-opacity:1;stroke:none" />
      <rect
         style="fill:#999999;fill-opacity:1;stroke:none"
         id="rect3047"
         width="4.9912744"
         height="8.9285717"
         x="190.02693"
         y="58.460903"
         transform="matrix(0.89441806,0.44723185,0,1,0,0)" />
      <rect
         transform="matrix(0.89441806,0.44723185,0,1,0,0)"
         y="58.839352"
         x="203.44344"
         height="8.9285717"
         width="4.9912744"
         id="rect3049"
         style="fill:#999999;fill-opacity:1;stroke:none" />
      <rect
         style="fill:#999999;fill-opacity:1;stroke:none"
         id="rect3051"
         width="4.9912744"
         height="8.9285717"
         x="219.09602"
         y="58.197414"
         transform="matrix(0.89441806,0.44723185,0,1,0,0)" />
      <rect
         transform="matrix(-0.89441806,0.44723185,0,1,0,0)"
         y="270.66727"
         x="-284.46176"
         height="8.9285717"
         width="4.9912744"
         id="rect3053"
         style="fill:#999999;fill-opacity:1;stroke:none" />
      <rect
         style="fill:#999999;fill-opacity:1;stroke:none"
         id="rect3055"
         width="4.9912744"
         height="8.9285717"
         x="-271.04526"
         y="271.04575"
         transform="matrix(-0.89441806,0.44723185,0,1,0,0)" />
      <rect
         transform="matrix(-0.89441806,0.44723185,0,1,0,0)"
         y="270.40378"
         x="-255.39267"
         height="8.9285717"
         width="4.9912744"
         id="rect3057"
         style="fill:#999999;fill-opacity:1;stroke:none" />
      <rect
         style="fill:#999999;fill-opacity:1;stroke:none"
         id="rect3059"
         width="4.9912744"
         height="8.9285717"
         x="-284.46176"
         y="250.66725"
         transform="matrix(-0.89441806,0.44723185,0,1,0,0)" />
      <rect
         transform="matrix(-0.89441806,0.44723185,0,1,0,0)"
         y="251.04573"
         x="-271.04526"
         height="8.9285717"
         width="4.9912744"
         id="rect3061"
         style="fill:#999999;fill-opacity:1;stroke:none" />
      <rect
         style="fill:#999999;fill-opacity:1;stroke:none"
         id="rect3063"
         width="4.9912744"
         height="8.9285717"
         x="-255.39267"
         y="250.40376"
         transform="matrix(-0.89441806,0.44723185,0,1,0,0)" />
      <rect
         transform="matrix(-0.89441806,0.44723185,0,1,0,0)"
         y="230.66725"
         x="-284.46176"
         height="8.9285717"
         width="4.9912744"
         id="rect3065"
         style="fill:#999999;fill-opacity:1;stroke:none" />
      <rect
         style="fill:#999999;fill-opacity:1;stroke:none"
         id="rect3067"
         width="4.9912744"
         height="8.9285717"
         x="-271.04526"
         y="231.04573"
         transform="matrix(-0.89441806,0.44723185,0,1,0,0)" />
      <rect
         transform="matrix(-0.89441806,0.44723185,0,1,0,0)"
         y="230.40376"
         x="-255.39267"
         height="8.9285717"
         width="4.9912744"
         id="rect3069"
         style="fill:#999999;fill-opacity:1;stroke:none" />
      <rect
         style="fill:#999999;fill-opacity:1;stroke:none"
         id="rect3071"
         width="4.9912744"
         height="8.9285717"
         x="-284.46176"
         y="210.66725"
         transform="matrix(-0.89441806,0.44723185,0,1,0,0)" />
      <rect
         transform="matrix(-0.89441806,0.44723185,0,1,0,0)"
         y="211.04573"
         x="-271.04526"
         height="8.9285717"
         width="4.9912744"
         id="rect3073"
         style="fill:#999999;fill-opacity:1;stroke:none" />
      <rect
         style="fill:#999999;fill-opacity:1;stroke:none"
         id="rect3075"
         width="4.9912744"
         height="8.9285717"
         x="-255.39267"
         y="210.40376"
         transform="matrix(-0.89441806,0.44723185,0,1,0,0)" />
      <path
         style="fill:#aa0000;fill-opacity:1;stroke:none"
         d="m 248.44396,164.83463 -10.85659,5.42857 0,13.71318 10.85659,-5.42857 z"
         id="path3077"
         inkscape:connector-curvature="0"
         sodipodi:nodetypes="ccccc" />
      <path
         sodipodi:nodetypes="ccccc"
         inkscape:connector-curvature="0"
         id="path3079"
         d="m 248.44396,164.83463 -5.64578,2.82903 0,13.71318 5.64578,-2.82903 z"
         style="fill:#800000;fill-opacity:1;stroke:none" />
      <path
         style="fill:#2b0000;fill-opacity:1;stroke:none"
         d="m 237.58284,183.99241 10.86111,-5.44459 -5.62571,-2.56097 -5.2354,2.29238 z"
         id="path3081"
         inkscape:connector-curvature="0"
         sodipodi:nodetypes="ccccc" />
    </g>
    <rect
       inkscape:export-ydpi="90"
       inkscape:export-xdpi="90"
       inkscape:export-filename="/home/demorose/developpement/javascript/test-canvas/building.png"
       y="195.3089"
       x="64.545166"
       height="150"
       width="100"
       id="rect3083"
       style="fill:none;stroke:none;opacity:0.62" />
    <g
       inkscape:export-ydpi="90"
       inkscape:export-xdpi="90"
       inkscape:export-filename="/home/demorose/developpement/javascript/test-canvas/building.png"
       id="g3085"
       transform="translate(0,150)"
       style="opacity:0.62">
      <rect
         transform="matrix(0.89492207,0.44622246,-0.89492207,0.44622246,0,0)"
         y="-12.769137"
         x="338.7146"
         height="55.314053"
         width="55.314053"
         id="rect3087"
         style="fill:#d35f5f;stroke:#000000;stroke-width:1.11692977000000004;stroke-linecap:butt;stroke-linejoin:round;stroke-miterlimit:4;stroke-opacity:1;stroke-dasharray:none" />
      <rect
         style="fill:#d35f5f;stroke:#000000;stroke-width:1.11692977000000004;stroke-linecap:butt;stroke-linejoin:round;stroke-miterlimit:4;stroke-opacity:1;stroke-dasharray:none"
         id="rect3089"
         width="55.314053"
         height="55.314053"
         x="305.09903"
         y="-46.384602"
         transform="matrix(0.89492207,0.44622246,-0.89492207,0.44622246,0,0)" />
      <rect
         transform="matrix(0.89398222,-0.44810243,0,1,0,0)"
         y="323.12515"
         x="352.55002"
         height="29.456387"
         width="54.594322"
         id="rect3091"
         style="fill:#e6e6e6;stroke:#000000;stroke-width:1.07216167000000007;stroke-linecap:butt;stroke-linejoin:round;stroke-miterlimit:4;stroke-opacity:1;stroke-dasharray:none" />
      <rect
         style="fill:#e6e6e6;stroke:#000000;stroke-width:1.07216167000000007;stroke-linecap:butt;stroke-linejoin:round;stroke-miterlimit:4;stroke-opacity:1;stroke-dasharray:none"
         id="rect3093"
         width="55.300549"
         height="29.520306"
         x="296.47031"
         y="-37.163799"
         transform="matrix(0.89398222,0.44810243,0,-1,0,0)" />
      <rect
         style="fill:#d5fff6;stroke:#000000;stroke-width:0.62540488999999999;stroke-linecap:butt;stroke-linejoin:round;stroke-miterlimit:4;stroke-opacity:1;stroke-dasharray:none"
         id="rect3095"
         width="31.84553"
         height="17.182268"
         x="356.95825"
         y="328.91858"
         transform="matrix(0.89398222,-0.44810243,0,1,0,0)" />
      <rect
         transform="matrix(0.89398222,-0.44810243,0,1,0,0)"
         y="334.20709"
         x="393.98697"
         height="18.318756"
         width="10.827522"
         id="rect3097"
         style="fill:#552200;stroke:#000000;stroke-width:0.45692234999999998;stroke-linecap:butt;stroke-linejoin:round;stroke-miterlimit:4;stroke-opacity:1;stroke-dasharray:none" />
    </g>
  </g>
</svg>
