<?xml version="1.0" encoding="UTF-8" standalone="no"?>
<!-- Created with Inkscape (http://www.inkscape.org/) -->

<svg
   xmlns:dc="http://purl.org/dc/elements/1.1/"
   xmlns:cc="http://creativecommons.org/ns#"
   xmlns:rdf="http://www.w3.org/1999/02/22-rdf-syntax-ns#"
   xmlns:svg="http://www.w3.org/2000/svg"
   xmlns="http://www.w3.org/2000/svg"
   xmlns:sodipodi="http://sodipodi.sourceforge.net/DTD/sodipodi-0.dtd"
   xmlns:inkscape="http://www.inkscape.org/namespaces/inkscape"
   width="744.09448819"
   height="1052.3622047"
   id="svg2"
   version="1.1"
   inkscape:version="0.48.4 r9939"
   sodipodi:docname="interface.svg">
  <defs
     id="defs4">
    <filter
       inkscape:collect="always"
       id="filter3847"
       x="-0.16489098"
       width="1.329782"
       y="-0.042844628"
       height="1.0856893">
      <feGaussianBlur
         inkscape:collect="always"
         stdDeviation="0.52886338"
         id="feGaussianBlur3849" />
    </filter>
  </defs>
  <sodipodi:namedview
     id="base"
     pagecolor="#ffffff"
     bordercolor="#666666"
     borderopacity="1.0"
     inkscape:pageopacity="0.0"
     inkscape:pageshadow="2"
     inkscape:zoom="2"
     inkscape:cx="238.76805"
     inkscape:cy="941.82108"
     inkscape:document-units="px"
     inkscape:current-layer="layer1"
     showgrid="false"
     inkscape:window-width="1535"
     inkscape:window-height="876"
     inkscape:window-x="65"
     inkscape:window-y="24"
     inkscape:window-maximized="1" />
  <metadata
     id="metadata7">
    <rdf:RDF>
      <cc:Work
         rdf:about="">
        <dc:format>image/svg+xml</dc:format>
        <dc:type
           rdf:resource="http://purl.org/dc/dcmitype/StillImage" />
        <dc:title></dc:title>
      </cc:Work>
    </rdf:RDF>
  </metadata>
  <g
     inkscape:label="Layer 1"
     inkscape:groupmode="layer"
     id="layer1">
    <g
       id="g4030"
       transform="translate(-132.93607,-199.40411)"
       inkscape:export-filename="/home/demorose/developpement/javascript/test-canvas/img/interface.png"
       inkscape:export-xdpi="90"
       inkscape:export-ydpi="90">
      <path
         sodipodi:type="arc"
         style="fill:#afe9af;fill-opacity:1;stroke:none"
         id="path3037"
         sodipodi:cx="143.94673"
         sodipodi:cy="198.2782"
         sodipodi:rx="82.327431"
         sodipodi:ry="82.327431"
         d="m 226.27416,198.2782 c 0,45.46818 -36.85924,82.32743 -82.32743,82.32743 -45.468183,0 -82.327429,-36.85925 -82.327429,-82.32743 0,-45.46819 36.859246,-82.32743 82.327429,-82.32743 45.46819,0 82.32743,36.85924 82.32743,82.32743 z"
         transform="matrix(0.45541252,0,0,0.45544765,113.42066,152.94091)" />
      <path
         inkscape:connector-curvature="0"
         style="fill:#2b0000;fill-opacity:1;stroke:none"
         d="m 178.98154,205.75 c -20.7068,0 -37.51279,16.77595 -37.51279,37.48432 0,20.70839 16.80599,37.51568 37.51279,37.51568 20.70677,0 37.48142,-16.80729 37.48142,-37.51568 0,-20.70837 -16.77465,-37.48432 -37.48142,-37.48432 z m 0,3.66694 c 18.68479,0 33.81477,15.13114 33.81477,33.81738 0,18.68625 -15.12998,33.84874 -33.81477,33.84874 -18.68481,0 -33.84613,-15.16249 -33.84613,-33.84874 0,-18.68624 15.16132,-33.81738 33.84613,-33.81738 z"
         id="path3039" />
      <path
         style="fill:#550000;fill-opacity:1;stroke:none"
         d="m 159.56678,220.60759 -3.22788,3.2281 19.40906,19.41055 -19.40906,19.41054 3.22788,3.22811 19.40904,-19.41054 19.36712,19.41054 3.26978,-3.22811 -19.40906,-19.41054 19.40906,-19.41055 -3.26978,-3.2281 -19.36712,19.41056 -19.40904,-19.41056 z"
         id="path3041"
         inkscape:connector-curvature="0" />
    </g>
    <g
       id="g4035"
       transform="translate(-132.93632,-199.40411)"
       inkscape:export-filename="/home/demorose/developpement/javascript/test-canvas/img/interface.png"
       inkscape:export-xdpi="90"
       inkscape:export-ydpi="90">
      <path
         transform="matrix(0.45541252,0,0,0.45544765,188.42091,152.94091)"
         d="m 226.27416,198.2782 c 0,45.46818 -36.85924,82.32743 -82.32743,82.32743 -45.468183,0 -82.327429,-36.85925 -82.327429,-82.32743 0,-45.46819 36.859246,-82.32743 82.327429,-82.32743 45.46819,0 82.32743,36.85924 82.32743,82.32743 z"
         sodipodi:ry="82.327431"
         sodipodi:rx="82.327431"
         sodipodi:cy="198.2782"
         sodipodi:cx="143.94673"
         id="path3811"
         style="fill:#afe9af;fill-opacity:1;stroke:none"
         sodipodi:type="arc" />
      <g
         transform="matrix(0.74014519,0,0,0.74014519,65.971479,54.330045)"
         id="g3905">
        <path
           style="fill:#ffffff;fill-opacity:1;stroke:#000000;stroke-width:0.4577049;stroke-miterlimit:4;stroke-opacity:1;stroke-dasharray:none"
           d="m 225.40674,232.35543 0,45.77049 28.60655,14.30328 28.60656,-14.30328 0,-45.77049 -28.60656,14.30328 -28.60655,-14.30328 z"
           id="rect3827"
           inkscape:connector-curvature="0" />
        <path
           style="fill:#e6e6e6;fill-opacity:1;stroke:#000000;stroke-width:0.4577049;stroke-miterlimit:4;stroke-opacity:1;stroke-dasharray:none"
           d="m 282.61985,232.35543 -28.60656,14.30328 0,45.77049 28.60656,-14.30328 0,-45.77049 z"
           id="rect3825"
           inkscape:connector-curvature="0" />
        <rect
           style="fill:#ff0000;fill-opacity:1;stroke:#000000;stroke-width:0.5117296;stroke-miterlimit:4;stroke-opacity:1;stroke-dasharray:none"
           id="rect3817"
           width="31.983101"
           height="31.983101"
           x="-133.78146"
           y="385.78738"
           transform="matrix(0.89442719,-0.4472136,0.89442719,0.4472136,0,0)" />
        <path
           inkscape:connector-curvature="0"
           id="path3839"
           d="m 281.51959,235.81024 -3.52079,1.76039 0,5.63327 3.52079,-1.7604 0,-5.63326 z"
           style="fill:#cccccc;fill-opacity:1;stroke:#000000;stroke-width:0.0563326;stroke-miterlimit:4;stroke-opacity:1;stroke-dasharray:none" />
        <path
           style="fill:#cccccc;fill-opacity:1;stroke:#000000;stroke-width:0.0563326;stroke-miterlimit:4;stroke-opacity:1;stroke-dasharray:none"
           d="m 275.46164,238.77182 -3.52079,1.76039 0,5.63326 3.52079,-1.76039 0,-5.63326 z"
           id="path3841"
           inkscape:connector-curvature="0" />
        <path
           inkscape:connector-curvature="0"
           id="path3843"
           d="m 268.66833,242.07998 -3.52079,1.76039 0,5.63326 3.52079,-1.76039 0,-5.63326 z"
           style="fill:#cccccc;fill-opacity:1;stroke:#000000;stroke-width:0.0563326;stroke-miterlimit:4;stroke-opacity:1;stroke-dasharray:none" />
        <path
           style="fill:#cccccc;fill-opacity:1;stroke:#000000;stroke-width:0.0563326;stroke-miterlimit:4;stroke-opacity:1;stroke-dasharray:none"
           d="m 261.23063,245.72732 -3.5208,1.76039 0,5.63326 3.5208,-1.76039 0,-5.63326 z"
           id="path3845"
           inkscape:connector-curvature="0" />
        <path
           style="fill:#cccccc;fill-opacity:1;stroke:#000000;stroke-width:0.0563326;stroke-miterlimit:4;stroke-opacity:1;stroke-dasharray:none"
           d="m 281.51959,247.25287 -3.52079,1.76039 0,5.63326 3.52079,-1.76039 0,-5.63326 z"
           id="path3849"
           inkscape:connector-curvature="0" />
        <path
           inkscape:connector-curvature="0"
           id="path3851"
           d="m 275.46164,250.21445 -3.52079,1.76039 0,5.63326 3.52079,-1.76039 0,-5.63326 z"
           style="fill:#cccccc;fill-opacity:1;stroke:#000000;stroke-width:0.0563326;stroke-miterlimit:4;stroke-opacity:1;stroke-dasharray:none" />
        <path
           style="fill:#cccccc;fill-opacity:1;stroke:#000000;stroke-width:0.0563326;stroke-miterlimit:4;stroke-opacity:1;stroke-dasharray:none"
           d="m 268.66833,253.52261 -3.52079,1.76039 0,5.63326 3.52079,-1.76039 0,-5.63326 z"
           id="path3853"
           inkscape:connector-curvature="0" />
        <path
           inkscape:connector-curvature="0"
           id="path3855"
           d="m 261.23063,257.16994 -3.5208,1.76039 0,5.63326 3.5208,-1.76039 0,-5.63326 z"
           style="fill:#cccccc;fill-opacity:1;stroke:#000000;stroke-width:0.0563326;stroke-miterlimit:4;stroke-opacity:1;stroke-dasharray:none" />
        <path
           inkscape:connector-curvature="0"
           id="path3857"
           d="m 281.51959,258.69549 -3.52079,1.76039 0,5.63326 3.52079,-1.76039 0,-5.63326 z"
           style="fill:#cccccc;fill-opacity:1;stroke:#000000;stroke-width:0.0563326;stroke-miterlimit:4;stroke-opacity:1;stroke-dasharray:none" />
        <path
           style="fill:#cccccc;fill-opacity:1;stroke:#000000;stroke-width:0.0563326;stroke-miterlimit:4;stroke-opacity:1;stroke-dasharray:none"
           d="m 275.46164,261.65707 -3.52079,1.76039 0,5.63326 3.52079,-1.76039 0,-5.63326 z"
           id="path3859"
           inkscape:connector-curvature="0" />
        <path
           inkscape:connector-curvature="0"
           id="path3861"
           d="m 268.66833,264.96523 -3.52079,1.76039 0,5.63326 3.52079,-1.76039 0,-5.63326 z"
           style="fill:#cccccc;fill-opacity:1;stroke:#000000;stroke-width:0.0563326;stroke-miterlimit:4;stroke-opacity:1;stroke-dasharray:none" />
        <path
           style="fill:#cccccc;fill-opacity:1;stroke:#000000;stroke-width:0.0563326;stroke-miterlimit:4;stroke-opacity:1;stroke-dasharray:none"
           d="m 261.23063,268.61256 -3.5208,1.76039 0,5.63326 3.5208,-1.76039 0,-5.63326 z"
           id="path3863"
           inkscape:connector-curvature="0" />
        <path
           style="fill:#e6e6e6;fill-opacity:1;stroke:#000000;stroke-width:0.0563326;stroke-miterlimit:4;stroke-opacity:1;stroke-dasharray:none"
           d="m 227.62982,258.69549 3.5208,1.76039 0,5.63326 -3.5208,-1.76039 0,-5.63326 z"
           id="path3881"
           inkscape:connector-curvature="0" />
        <path
           inkscape:connector-curvature="0"
           id="path3883"
           d="m 233.68777,261.65707 3.52079,1.76039 0,5.63326 -3.52079,-1.76039 0,-5.63326 z"
           style="fill:#e6e6e6;fill-opacity:1;stroke:#000000;stroke-width:0.0563326;stroke-miterlimit:4;stroke-opacity:1;stroke-dasharray:none" />
        <path
           style="fill:#e6e6e6;fill-opacity:1;stroke:#000000;stroke-width:0.0563326;stroke-miterlimit:4;stroke-opacity:1;stroke-dasharray:none"
           d="m 240.48108,264.96523 3.5208,1.76039 0,5.63326 -3.5208,-1.76039 0,-5.63326 z"
           id="path3885"
           inkscape:connector-curvature="0" />
        <path
           inkscape:connector-curvature="0"
           id="path3887"
           d="m 247.91879,268.61256 3.52079,1.76039 0,5.63326 -3.52079,-1.76039 0,-5.63326 z"
           style="fill:#e6e6e6;fill-opacity:1;stroke:#000000;stroke-width:0.0563326;stroke-miterlimit:4;stroke-opacity:1;stroke-dasharray:none" />
        <path
           inkscape:connector-curvature="0"
           id="path3889"
           d="m 227.62982,247.25287 3.5208,1.76039 0,5.63326 -3.5208,-1.76039 0,-5.63326 z"
           style="fill:#e6e6e6;fill-opacity:1;stroke:#000000;stroke-width:0.0563326;stroke-miterlimit:4;stroke-opacity:1;stroke-dasharray:none" />
        <path
           style="fill:#e6e6e6;fill-opacity:1;stroke:#000000;stroke-width:0.0563326;stroke-miterlimit:4;stroke-opacity:1;stroke-dasharray:none"
           d="m 233.68777,250.21445 3.52079,1.76039 0,5.63326 -3.52079,-1.76039 0,-5.63326 z"
           id="path3891"
           inkscape:connector-curvature="0" />
        <path
           inkscape:connector-curvature="0"
           id="path3893"
           d="m 240.48108,253.52261 3.5208,1.76039 0,5.63326 -3.5208,-1.76039 0,-5.63326 z"
           style="fill:#e6e6e6;fill-opacity:1;stroke:#000000;stroke-width:0.0563326;stroke-miterlimit:4;stroke-opacity:1;stroke-dasharray:none" />
        <path
           style="fill:#e6e6e6;fill-opacity:1;stroke:#000000;stroke-width:0.0563326;stroke-miterlimit:4;stroke-opacity:1;stroke-dasharray:none"
           d="m 247.91879,257.16994 3.52079,1.76039 0,5.63326 -3.52079,-1.76039 0,-5.63326 z"
           id="path3895"
           inkscape:connector-curvature="0" />
        <path
           style="fill:#e6e6e6;fill-opacity:1;stroke:#000000;stroke-width:0.0563326;stroke-miterlimit:4;stroke-opacity:1;stroke-dasharray:none"
           d="m 227.62982,235.81024 3.5208,1.76039 0,5.63327 -3.5208,-1.7604 0,-5.63326 z"
           id="path3897"
           inkscape:connector-curvature="0" />
        <path
           inkscape:connector-curvature="0"
           id="path3899"
           d="m 233.68777,238.77182 3.52079,1.76039 0,5.63326 -3.52079,-1.76039 0,-5.63326 z"
           style="fill:#e6e6e6;fill-opacity:1;stroke:#000000;stroke-width:0.0563326;stroke-miterlimit:4;stroke-opacity:1;stroke-dasharray:none" />
        <path
           style="fill:#e6e6e6;fill-opacity:1;stroke:#000000;stroke-width:0.0563326;stroke-miterlimit:4;stroke-opacity:1;stroke-dasharray:none"
           d="m 240.48108,242.07998 3.5208,1.76039 0,5.63326 -3.5208,-1.76039 0,-5.63326 z"
           id="path3901"
           inkscape:connector-curvature="0" />
        <path
           inkscape:connector-curvature="0"
           id="path3903"
           d="m 247.91879,245.72732 3.52079,1.76039 0,5.63326 -3.52079,-1.76039 0,-5.63326 z"
           style="fill:#e6e6e6;fill-opacity:1;stroke:#000000;stroke-width:0.0563326;stroke-miterlimit:4;stroke-opacity:1;stroke-dasharray:none" />
      </g>
      <path
         id="path3813"
         d="m 253.98179,205.75 c -20.7068,0 -37.51279,16.77595 -37.51279,37.48432 0,20.70839 16.80599,37.51568 37.51279,37.51568 20.70677,0 37.48142,-16.80729 37.48142,-37.51568 0,-20.70837 -16.77465,-37.48432 -37.48142,-37.48432 z m 0,3.66694 c 18.68479,0 33.81477,15.13114 33.81477,33.81738 0,18.68625 -15.12998,33.84874 -33.81477,33.84874 -18.68481,0 -33.84613,-15.16249 -33.84613,-33.84874 0,-18.68624 15.16132,-33.81738 33.84613,-33.81738 z"
         style="fill:#2b0000;fill-opacity:1;stroke:none"
         inkscape:connector-curvature="0" />
    </g>
    <g
       id="g4067"
       transform="translate(-132.93607,-79.40411)"
       inkscape:export-filename="/home/demorose/Developpement/html/test-canvas/interface.png"
       inkscape:export-xdpi="90"
       inkscape:export-ydpi="90">
      <path
         transform="matrix(0.45541252,0,0,0.45544765,263.42066,152.94091)"
         d="m 226.27416,198.2782 c 0,45.46818 -36.85924,82.32743 -82.32743,82.32743 -45.468183,0 -82.327429,-36.85925 -82.327429,-82.32743 0,-45.46819 36.859246,-82.32743 82.327429,-82.32743 45.46819,0 82.32743,36.85924 82.32743,82.32743 z"
         sodipodi:ry="82.327431"
         sodipodi:rx="82.327431"
         sodipodi:cy="198.2782"
         sodipodi:cx="143.94673"
         id="path3934"
         style="fill:#afe9af;fill-opacity:1;stroke:none"
         sodipodi:type="arc" />
      <path
         id="path3936"
         d="m 328.98154,205.75 c -20.7068,0 -37.51279,16.77595 -37.51279,37.48432 0,20.70839 16.80599,37.51568 37.51279,37.51568 20.70677,0 37.48142,-16.80729 37.48142,-37.51568 0,-20.70837 -16.77465,-37.48432 -37.48142,-37.48432 z m 0,3.66694 c 18.68479,0 33.81477,15.13114 33.81477,33.81738 0,18.68625 -15.12998,33.84874 -33.81477,33.84874 -18.68481,0 -33.84613,-15.16249 -33.84613,-33.84874 0,-18.68624 15.16132,-33.81738 33.84613,-33.81738 z"
         style="fill:#2b0000;fill-opacity:1;stroke:none"
         inkscape:connector-curvature="0" />
      <g
         id="g4025">
        <path
           style="fill:#552200;fill-opacity:1;stroke:#000000;stroke-width:0.1;stroke-miterlimit:4;stroke-opacity:1;stroke-dasharray:none"
           d="m 309.53125,218.03125 -6.125,6.125 1.6875,1.6875 2.53125,-2.53125 30.40625,30.375 1.03125,-1.03125 -30.375,-30.40625 2.53125,-2.53125 -1.6875,-1.6875 z"
           id="rect4004"
           inkscape:connector-curvature="0" />
        <path
           style="fill:#cccccc;fill-opacity:1;stroke:#000000;stroke-width:0.1;stroke-miterlimit:4;stroke-opacity:1;stroke-dasharray:none"
           d="m 331.69623,256.51535 10.19766,-10.19766 13.66386,13.66386 c -1.35052,6.13082 -5.03371,9.15141 -10.19766,10.19766 z"
           id="rect3996"
           inkscape:connector-curvature="0"
           sodipodi:nodetypes="ccccc" />
        <path
           inkscape:connector-curvature="0"
           style="fill:#999999;stroke:#000000;stroke-width:0;stroke-miterlimit:4;stroke-opacity:1;stroke-dasharray:none"
           d="m 336.28531,251.93658 5.67653,5.67653 0.55258,0 -5.95282,-5.95282 -0.27629,0.27629 z"
           id="path3999" />
      </g>
    </g>
    <g
       inkscape:export-ydpi="90"
       inkscape:export-xdpi="90"
       inkscape:export-filename="/home/demorose/developpement/javascript/test-canvas/img/interface.png"
       id="g3066"
       transform="translate(92.06425,-199.40411)">
      <path
         transform="matrix(0.45541252,0,0,0.45544765,113.42066,152.94091)"
         d="m 226.27416,198.2782 c 0,45.46818 -36.85924,82.32743 -82.32743,82.32743 -45.468183,0 -82.327429,-36.85925 -82.327429,-82.32743 0,-45.46819 36.859246,-82.32743 82.327429,-82.32743 45.46819,0 82.32743,36.85924 82.32743,82.32743 z"
         sodipodi:ry="82.327431"
         sodipodi:rx="82.327431"
         sodipodi:cy="198.2782"
         sodipodi:cx="143.94673"
         id="path3026"
         style="fill:#afe9af;fill-opacity:1;stroke:none"
         sodipodi:type="arc" />
      <path
         id="path3028"
         d="m 178.98154,205.75 c -20.7068,0 -37.51279,16.77595 -37.51279,37.48432 0,20.70839 16.80599,37.51568 37.51279,37.51568 20.70677,0 37.48142,-16.80729 37.48142,-37.51568 0,-20.70837 -16.77465,-37.48432 -37.48142,-37.48432 z m 0,3.66694 c 18.68479,0 33.81477,15.13114 33.81477,33.81738 0,18.68625 -15.12998,33.84874 -33.81477,33.84874 -18.68481,0 -33.84613,-15.16249 -33.84613,-33.84874 0,-18.68624 15.16132,-33.81738 33.84613,-33.81738 z"
         style="fill:#2b0000;fill-opacity:1;stroke:none"
         inkscape:connector-curvature="0" />
      <path
         inkscape:connector-curvature="0"
         style="fill:#550000;fill-opacity:1;stroke:none"
         d="m 271.03125,11.875 -7.59375,11.65625 5.28125,0 0.0312,18.03125 -15.90625,0 0,-5.46875 -11.625,7.59375 0.15625,0.125 -0.0625,0.03125 1.09375,0.625 10.4375,6.84375 0,-5.1875 15.90625,0 0,17.75 -5.3125,0 7.59375,11.65625 7.59375,-11.65625 -5.3125,0 0,-17.75 15.90625,0.03125 0,5.15625 10.3125,-6.75 1.21875,-0.71875 -0.0625,-0.03125 0.15625,-0.125 -11.625,-7.59375 0,5.46875 -15.90625,0 0,-18.03125 5.3125,0 L 271.0312,11.875 z"
         transform="translate(-92.06425,199.40411)"
         id="path3030" />
    </g>
    <g
       id="g3903"
       transform="translate(0,-120)"
       inkscape:export-filename="/home/demorose/developpement/javascript/test-canvas/img/interface.png"
       inkscape:export-xdpi="90"
       inkscape:export-ydpi="90">
      <path
         sodipodi:type="arc"
         style="fill:#afe9af;fill-opacity:1;stroke:none"
         id="path3864"
         sodipodi:cx="143.94673"
         sodipodi:cy="198.2782"
         sodipodi:rx="82.327431"
         sodipodi:ry="82.327431"
         d="m 226.27416,198.2782 c 0,45.46818 -36.85924,82.32743 -82.32743,82.32743 -45.468183,0 -82.327429,-36.85925 -82.327429,-82.32743 0,-45.46819 36.859246,-82.32743 82.327429,-82.32743 45.46819,0 82.32743,36.85924 82.32743,82.32743 z"
         transform="matrix(0.45541252,0,0,0.45544765,130.48459,73.5368)" />
      <path
         id="path3852"
         d="m 190.09375,132.0625 -28.15625,16.25 c -0.91311,2.00177 -1.69736,4.07815 -2.25,6.25 l 2.15625,-1.25 0,12.09375 -3.3125,-1.90625 c -0.001,0.11445 0,0.22905 0,0.34375 0,2.72318 0.3237,5.37919 0.875,7.9375 l 49.75,-28.71875 -19.0625,-11 z m -0.90625,5.46875 10.46875,6.0625 -10.5,6.0625 0.0312,-12.125 z m -5.625,3.25 0,12.09375 -10.5,-6.03125 10.5,-6.0625 z m -16.09375,9.28125 10.46875,6.0625 -10.46875,6.0625 0,-12.125 z"
         style="fill:#aa8800;stroke:none"
         inkscape:connector-curvature="0" />
      <path
         id="path3892"
         d="m 191.34375,133.3125 -30.53125,17.625 c -0.003,0.009 0.003,0.0221 0,0.0312 -0.68646,1.87954 -1.21326,3.83729 -1.59375,5.84375 l 3.875,-2.25 0,12.125 -4.5625,-2.625 c 0.0187,3.2724 0.4752,6.44595 1.28125,9.46875 l 50.59375,-29.21875 -19.0625,-11 z m -0.90625,5.46875 10.46875,6.0625 -10.46875,6.0625 0,-12.125 z m -5.625,3.25 0,12.09375 -10.5,-6.03125 10.5,-6.0625 z m -16.09375,9.3125 10.46875,6.03125 -10.46875,6.0625 0,-12.09375 z"
         style="fill:#d4aa00;fill-opacity:1;stroke:none"
         inkscape:connector-curvature="0" />
      <path
         style="fill:none;stroke:#000000;stroke-width:0.87959027px;stroke-linecap:butt;stroke-linejoin:miter;stroke-opacity:1"
         d="m 201.80326,148.12242 0,32.0905"
         id="path3816"
         inkscape:connector-curvature="0" />
      <path
         sodipodi:type="arc"
         style="fill:#000000;stroke:none"
         id="path3818"
         sodipodi:cx="164"
         sodipodi:cy="214.36218"
         sodipodi:rx="20"
         sodipodi:ry="20"
         d="m 184,214.36218 c 0,11.0457 -8.95431,20 -20,20 -11.04569,0 -20,-8.9543 -20,-20 0,-11.04569 8.95431,-20 20,-20 11.04569,0 20,8.95431 20,20 z"
         transform="matrix(0.62684155,0,0,0.62684155,99.001249,49.020863)" />
      <path
         transform="matrix(0.62684155,0,0,0.62684155,149.9724,-81.145361)"
         style="fill:#ffffff;stroke:none;filter:url(#filter3847)"
         d="m 72.12325,407.43536 c -9.95115,6.66916 -9.77039,23.00447 0.34375,29.4375 -7.64643,-7.90979 -7.64441,-21.72091 -0.0625,-29.625 l -0.28125,0.1875 z"
         id="path3820"
         inkscape:connector-curvature="0" />
      <path
         inkscape:connector-curvature="0"
         style="fill:#2b0000;fill-opacity:1;stroke:none"
         d="m 196.04547,126.34589 c -20.7068,0 -37.51279,16.77595 -37.51279,37.48432 0,20.70839 16.80599,37.51568 37.51279,37.51568 20.70677,0 37.48142,-16.80729 37.48142,-37.51568 0,-20.70837 -16.77465,-37.48432 -37.48142,-37.48432 z m 0,3.66694 c 18.68479,0 33.81477,15.13114 33.81477,33.81738 0,18.68625 -15.12998,33.84874 -33.81477,33.84874 -18.68481,0 -33.84613,-15.16249 -33.84613,-33.84874 0,-18.68624 15.16132,-33.81738 33.84613,-33.81738 z"
         id="path3866" />
    </g>
  </g>
</svg>
